<svg width="42" height="30" viewBox="0 0 42 30" fill="none" xmlns="http://www.w3.org/2000/svg">
<path d="M39.9274 1.47289C38.7721 0.317623 36.9622 0.317623 35.8069 1.47288L14.8798 22.3475L6.27397 13.7929C6.2738 13.7927 6.27362 13.7926 6.27345 13.7924C5.11817 12.6376 3.30867 12.6378 2.15358 13.7929C0.99832 14.9482 0.99832 16.7581 2.15358 17.9133L12.7669 28.5267C13.3487 29.1086 14.0665 29.3664 14.8271 29.3664C15.5923 29.3664 16.2976 29.1063 16.9216 28.5448L16.9311 28.5362L16.9402 28.5271L39.9269 5.59375L39.9274 5.59334C41.0826 4.43808 41.0826 2.62815 39.9274 1.47289Z" fill="#2371A5" stroke="#2371A5"/>
</svg>
