<svg width="18" height="19" viewBox="0 0 18 19" fill="none" xmlns="http://www.w3.org/2000/svg">
<path d="M15.485 6.68005L14.865 18.24C14.845 18.66 14.485 19 14.065 19H3.92502C3.50502 19 3.14502 18.66 3.12502 18.24L2.50503 6.68005C2.48503 6.24005 2.82504 5.86004 3.26504 5.84004C3.70504 5.82004 4.08503 6.16005 4.10503 6.60005L4.68503 17.4H13.305L13.885 6.60005C13.905 6.16005 14.285 5.82004 14.725 5.84004C15.165 5.86004 15.505 6.24005 15.485 6.68005ZM17.605 4.00005C17.605 4.44005 17.245 4.80005 16.805 4.80005H1.20503C0.765029 4.80005 0.405029 4.44005 0.405029 4.00005C0.405029 3.56005 0.765029 3.20005 1.20503 3.20005H5.60503V1.40005C5.60503 1.02005 5.86502 0.800049 6.24502 0.800049H11.765C12.145 0.800049 12.405 1.02005 12.405 1.40005V3.20005H16.805C17.245 3.20005 17.605 3.56005 17.605 4.00005ZM7.00503 3.20005H11.005V2.20005H7.00503V3.20005ZM7.34502 16.2C7.74502 16.2 8.04502 15.82 8.04502 15.44L7.84502 6.80005C7.84502 6.42005 7.52502 6.10005 7.12502 6.10005C6.74502 6.10005 6.42502 6.42004 6.44502 6.82004L6.64502 15.4801C6.64502 15.8601 6.96502 16.2 7.34502 16.2ZM10.645 16.2C11.025 16.2 11.345 15.88 11.345 15.5L11.545 6.86006C11.545 6.48006 11.245 6.14004 10.865 6.14004C10.465 6.14004 10.165 6.44004 10.145 6.82004L9.94502 15.4601C9.92502 15.8601 10.245 16.2 10.645 16.2C10.625 16.2 10.625 16.2 10.645 16.2Z" fill="#262626"/>
</svg>
