<svg width="20" height="12" viewBox="0 0 20 12" fill="none" xmlns="http://www.w3.org/2000/svg">
<path d="M19.0646 5.56011C18.9246 5.36011 15.6846 0.600098 10.0046 0.600098C4.32457 0.600098 1.08457 5.36011 0.94457 5.56011C0.76457 5.82011 0.76457 6.18011 0.94457 6.46011C1.08457 6.66011 4.32457 11.4201 10.0046 11.4201C15.6846 11.4201 18.9246 6.66011 19.0646 6.46011C19.2446 6.18011 19.2446 5.82011 19.0646 5.56011ZM10.0046 9.8001C6.14457 9.8001 3.50457 7.0801 2.60457 6.0001C3.50457 4.9001 6.12457 2.2001 10.0046 2.2001C13.8646 2.2001 16.5046 4.9201 17.4046 6.0001C16.5046 7.1001 13.8646 9.8001 10.0046 9.8001ZM10.4646 2.72012C9.58457 2.60012 8.72457 2.82011 8.00457 3.36011C6.54457 4.46011 6.24457 6.5401 7.34457 8.0001C7.88457 8.7201 8.64457 9.1601 9.52457 9.3001C9.68457 9.3201 9.84457 9.34009 9.98457 9.34009C10.7046 9.34009 11.3846 9.10008 11.9646 8.68008C13.4246 7.58008 13.7246 5.50009 12.6246 4.04009C12.1246 3.30009 11.3446 2.84012 10.4646 2.72012ZM11.2646 7.7001C10.8246 8.0401 10.2646 8.1801 9.70457 8.1001C9.14457 8.0201 8.64457 7.72008 8.30457 7.28008C7.60457 6.34008 7.78457 5.0201 8.72457 4.3001C9.16457 3.9601 9.72457 3.8201 10.2846 3.9001C10.8446 3.9801 11.3446 4.28012 11.6846 4.72012C12.3846 5.66012 12.2046 7.0001 11.2646 7.7001ZM11.1846 4.8001C11.3446 4.9401 11.4246 5.16011 11.4246 5.36011C11.4246 5.56011 11.3446 5.78012 11.1846 5.92012C11.0446 6.06012 10.8246 6.16011 10.6246 6.16011C10.4046 6.16011 10.2046 6.08012 10.0646 5.92012C9.90457 5.76012 9.82457 5.56011 9.82457 5.36011C9.82457 5.14011 9.90457 4.9401 10.0646 4.8001C10.2046 4.6401 10.4246 4.56011 10.6246 4.56011C10.8446 4.58011 11.0446 4.6601 11.1846 4.8001Z" fill="#0F3D59"/>
</svg>
