<svg width="18" height="20" viewBox="0 0 18 20" fill="none" xmlns="http://www.w3.org/2000/svg">
<path d="M17.0071 8.11993C17.2871 8.39993 17.2871 8.83993 17.0071 9.11993L9.04709 17.0799C7.72709 18.3999 6.2071 19.1199 4.7871 19.1199C4.4271 19.1199 4.0671 19.0799 3.7071 18.9799C2.3071 18.5999 1.22709 17.5199 0.847088 16.0599C0.367088 14.2599 1.00709 12.2999 2.62709 10.6799L11.4871 1.81993C12.9271 0.379931 14.9271 0.839911 16.0871 1.99991C17.6671 3.57991 17.2271 5.43991 16.1671 6.49991L7.22709 15.4399C6.04709 16.6199 4.70709 16.5399 4.02709 15.8399C3.34709 15.1399 3.26709 13.8399 4.44709 12.6399L10.4871 6.59991C10.7671 6.31991 11.2071 6.31991 11.4871 6.59991C11.7671 6.87991 11.7671 7.31991 11.4871 7.59991L5.44709 13.6399C4.92709 14.1599 4.84709 14.6599 5.02709 14.8599C5.22709 15.0599 5.72709 14.9799 6.24709 14.4599L15.1871 5.51993C16.0871 4.61993 15.7071 3.59991 15.1071 2.99991C14.4271 2.31991 13.3271 1.9799 12.4871 2.8399L3.62709 11.6999C2.36709 12.9599 1.8471 14.4199 2.2071 15.7199C2.4671 16.6799 3.1671 17.3999 4.0871 17.6399C5.3271 17.9799 6.74711 17.4199 8.06711 16.0999L16.0271 8.1399C16.2871 7.8599 16.7271 7.85993 17.0071 8.11993Z" fill="#2371A5"/>
</svg>
