<svg width="14" height="14" viewBox="0 0 14 14" fill="none" xmlns="http://www.w3.org/2000/svg">
<path d="M8.98914 4.2667C9.41581 4.7467 9.61581 5.40003 9.52248 6.09336C9.36248 7.37336 8.42914 7.82669 7.60247 7.82669C7.56247 7.82669 7.53581 7.82669 7.53581 7.82669V8.1467C7.53581 8.44003 7.29581 8.68003 7.00247 8.68003C6.70914 8.68003 6.46914 8.44003 6.46914 8.1467V7.72004C6.46914 7.28004 6.65581 6.76003 7.60247 6.76003C8.12247 6.76003 8.38914 6.49336 8.45581 5.96003C8.48248 5.78669 8.49581 5.32004 8.17581 4.97337C7.92248 4.69337 7.50914 4.5467 6.94914 4.5467C5.74914 4.5467 5.70915 5.33336 5.70915 5.41336C5.70915 5.7067 5.46915 5.9467 5.17581 5.9467C4.88248 5.9467 4.64248 5.7067 4.64248 5.41336C4.64248 4.88003 5.0558 3.48003 6.94914 3.48003C8.0558 3.48003 8.66914 3.9067 8.98914 4.2667ZM6.96247 9.13337C6.78913 9.13337 6.6158 9.20003 6.4958 9.33337C6.3758 9.45337 6.2958 9.6267 6.2958 9.80003C6.2958 9.97337 6.36247 10.1467 6.4958 10.2667C6.6158 10.3867 6.78913 10.4667 6.96247 10.4667C7.1358 10.4667 7.30913 10.4 7.42913 10.2667C7.54913 10.1467 7.62913 9.97337 7.62913 9.80003C7.62913 9.6267 7.56247 9.45337 7.42913 9.33337C7.32247 9.21337 7.14913 9.13337 6.96247 9.13337ZM13.1358 7.00003C13.1358 10.3867 10.3891 13.1334 7.00247 13.1334C3.61581 13.1334 0.869141 10.3867 0.869141 7.00003C0.869141 3.61337 3.61581 0.866699 7.00247 0.866699C10.3891 0.866699 13.1358 3.61337 13.1358 7.00003ZM12.0691 7.00003C12.0691 4.20003 9.80247 1.93337 7.00247 1.93337C4.20247 1.93337 1.93581 4.20003 1.93581 7.00003C1.93581 9.80003 4.20247 12.0667 7.00247 12.0667C9.80247 12.0667 12.0691 9.80003 12.0691 7.00003Z" fill="#2371A5"/>
</svg>
