<svg width="12" height="12" viewBox="0 0 12 12" fill="none" xmlns="http://www.w3.org/2000/svg">
<path d="M10.9449 9.66003C11.3049 10.02 11.3049 10.58 10.9449 10.94C10.7649 11.12 10.5449 11.2 10.3049 11.2C10.0649 11.2 9.84493 11.12 9.66493 10.94L6.00492 7.28004L2.34491 10.94C2.16491 11.12 1.94492 11.2 1.70492 11.2C1.46492 11.2 1.24493 11.12 1.06493 10.94C0.704932 10.58 0.704932 10.02 1.06493 9.66003L4.72492 6.00004L1.06493 2.34004C0.704932 1.98004 0.704932 1.42004 1.06493 1.06004C1.42493 0.700037 1.98491 0.700037 2.34491 1.06004L6.00492 4.72003L9.66493 1.06004C10.0249 0.700037 10.5849 0.700037 10.9449 1.06004C11.3049 1.42004 11.3049 1.98004 10.9449 2.34004L7.2849 6.00004L10.9449 9.66003Z" fill="#262626"/>
</svg>
